***********************************************************************************
                       =Beyond the Da Vinci Code= [2005]
A documentary exploration of the 2000 year alternative history suggested by Dan Brown's novel, "The Da Vinci Code." The program explores the relationship of Jesus and Magdalene, the Priory of Sion, the medieval Church, and reveals the true story behind the fiction.
Director:
Will Ehbrecht
Stars:
Stephen Wozniak, Claudia Coloma and Danny Burstein 
***********************************************************************************
Format                                   : Matroska
Format version                           : Version 2
File size                                : 769 MiB
Duration                                 : 1h 29mn
Overall bit rate                         : 1 201 Kbps

Video
ID                                       : 1
Format                                   : AVC
Format/Info                              : Advanced Video Codec
Format profile                           : High@L3.0
Duration                                 : 1h 29mn
Bit rate                                 : 954 Kbps
Width                                    : 720 pixels
Height                                   : 368 pixels
Display aspect ratio                     : 16:9
Original display aspect ratio            : 16:9
Frame rate                               : 29.970 fps
Stream size                              : 611 MiB (79%)
Writing library                          : x264 core 120
Language                                 : English
Default                                  : Yes
Forced                                   : No

Audio
Format                                   : AC-3
Format/Info                              : Audio Coding 3
Duration                                 : 1h 29mn
Bit rate mode                            : Constant
Bit rate                                 : 224 Kbps
Channel(s)                               : 2 channels
Sampling rate                            : 48.0 KHz
Stream size                              : 143 MiB (19%)
Language                                 : English
Default                                  : Yes
Forced                                   : No

***********************************************************************************
NOTE FOR MY MOVIE TORRENTS: Each movie/episode has been hashed with an MD5 checker and I am listing the hash below.
***********************************************************************************
Movie MD5:  BD67CD0B1CA51892C360660D1218DEA2
----------------------------------------------------------------------------
MD5 Checker for Linux:  http://sinf.gr/en/hashcalc.html
MD5 Checker for Windows:  http://getmd5checker.com/ 
----------------------------------------------------------------------------
 This was personally encoded by me, Carjacker from the regular DVD edition.
Leave your thoughts/opinions and ratings on the A/V of this film for others to see. Thanks! 
Pease SEED as you DL so others may also enjoy the movie! 
**Requests are welcome!		